<mxfile host="65bd71144e">
    <diagram id="_FjV9VQuxABcsZ4pnb-i" name="Page-1">
        <mxGraphModel dx="462" dy="488" grid="1" gridSize="10" guides="1" tooltips="1" connect="1" arrows="1" fold="1" page="1" pageScale="1" pageWidth="827" pageHeight="1169" background="#ffffff" math="0" shadow="0">
            <root>
                <mxCell id="0"/>
                <mxCell id="1" parent="0"/>
                <mxCell id="2" value="App.jsx" style="rounded=1;whiteSpace=wrap;html=1;fillColor=#008a00;fontColor=#ffffff;strokeColor=#005700;" vertex="1" parent="1">
                    <mxGeometry x="180" y="60" width="120" height="60" as="geometry"/>
                </mxCell>
                <mxCell id="3" value="Nav.jsx" style="rounded=1;whiteSpace=wrap;html=1;fillColor=#0050ef;fontColor=#ffffff;strokeColor=#001DBC;" vertex="1" parent="1">
                    <mxGeometry x="60" y="200" width="120" height="60" as="geometry"/>
                </mxCell>
                <mxCell id="4" value="Excel.jsx" style="rounded=1;whiteSpace=wrap;html=1;fillColor=#0050ef;fontColor=#ffffff;strokeColor=#001DBC;" vertex="1" parent="1">
                    <mxGeometry x="330" y="200" width="120" height="60" as="geometry"/>
                </mxCell>
                <mxCell id="6" value="" style="edgeStyle=none;html=1;exitX=0.5;exitY=1;exitDx=0;exitDy=0;entryX=0.5;entryY=0;entryDx=0;entryDy=0;" edge="1" parent="1" source="3" target="5">
                    <mxGeometry relative="1" as="geometry">
                        <mxPoint x="200" y="320" as="targetPoint"/>
                    </mxGeometry>
                </mxCell>
                <mxCell id="5" value="NavChild.jsx" style="rounded=1;whiteSpace=wrap;html=1;fillColor=#1ba1e2;fontColor=#ffffff;strokeColor=#006EAF;" vertex="1" parent="1">
                    <mxGeometry x="60" y="340" width="120" height="60" as="geometry"/>
                </mxCell>
                <mxCell id="7" value="" style="endArrow=classic;html=1;exitX=0.5;exitY=1;exitDx=0;exitDy=0;entryX=0.5;entryY=0;entryDx=0;entryDy=0;" edge="1" parent="1" source="2" target="3">
                    <mxGeometry width="50" height="50" relative="1" as="geometry">
                        <mxPoint x="220" y="280" as="sourcePoint"/>
                        <mxPoint x="240" y="230" as="targetPoint"/>
                    </mxGeometry>
                </mxCell>
                <mxCell id="8" value="" style="endArrow=classic;html=1;exitX=0.5;exitY=1;exitDx=0;exitDy=0;entryX=0.5;entryY=0;entryDx=0;entryDy=0;" edge="1" parent="1" source="2" target="4">
                    <mxGeometry width="50" height="50" relative="1" as="geometry">
                        <mxPoint x="220" y="280" as="sourcePoint"/>
                        <mxPoint x="230" y="260" as="targetPoint"/>
                    </mxGeometry>
                </mxCell>
                <mxCell id="9" value="Week 1" style="text;html=1;align=center;verticalAlign=middle;whiteSpace=wrap;rounded=0;fillColor=#f8cecc;strokeColor=#b85450;" vertex="1" parent="1">
                    <mxGeometry x="210" y="10" width="60" height="30" as="geometry"/>
                </mxCell>
                <mxCell id="11" value="Props" style="text;html=1;align=center;verticalAlign=middle;whiteSpace=wrap;rounded=0;" vertex="1" parent="1">
                    <mxGeometry x="70" y="130" width="60" height="30" as="geometry"/>
                </mxCell>
                <mxCell id="13" value="" style="shape=flexArrow;endArrow=classic;html=1;entryX=0;entryY=1;entryDx=0;entryDy=0;fillColor=#fff2cc;gradientColor=#ffd966;strokeColor=#d6b656;" edge="1" parent="1" target="2">
                    <mxGeometry width="50" height="50" relative="1" as="geometry">
                        <mxPoint x="80" y="190" as="sourcePoint"/>
                        <mxPoint x="270" y="230" as="targetPoint"/>
                    </mxGeometry>
                </mxCell>
                <mxCell id="14" value="" style="shape=flexArrow;endArrow=classic;html=1;fillColor=#fff2cc;gradientColor=#ffd966;strokeColor=#d6b656;" edge="1" parent="1">
                    <mxGeometry width="50" height="50" relative="1" as="geometry">
                        <mxPoint x="310" y="120" as="sourcePoint"/>
                        <mxPoint x="430" y="190" as="targetPoint"/>
                    </mxGeometry>
                </mxCell>
                <mxCell id="15" value="Update" style="text;html=1;align=center;verticalAlign=middle;whiteSpace=wrap;rounded=0;" vertex="1" parent="1">
                    <mxGeometry x="350" y="120" width="60" height="30" as="geometry"/>
                </mxCell>
                <mxCell id="16" value="&lt;h1 style=&quot;margin-top: 0px;&quot;&gt;&lt;font style=&quot;color: rgb(0, 0, 255);&quot;&gt;Note&lt;/font&gt;&lt;/h1&gt;&lt;p&gt;&lt;font style=&quot;color: rgb(255, 0, 0);&quot;&gt;Props will be sended as an integer and a switch will be used in Excel.jsx to update the content in fast manner. NavChild.jsx is included inside Nav.jsx so this technique will be applicable through NavChild.jsx also&lt;/font&gt;&lt;/p&gt;" style="text;html=1;whiteSpace=wrap;overflow=hidden;rounded=0;" vertex="1" parent="1">
                    <mxGeometry x="270" y="280" width="180" height="180" as="geometry"/>
                </mxCell>
            </root>
        </mxGraphModel>
    </diagram>
</mxfile>